<svg version="1.1" id="Layer_1" xmlns="http://www.w3.org/2000/svg" xmlns:xlink="http://www.w3.org/1999/xlink" x="0px" y="0px"
	 width="100%" viewBox="0 0 3691 3691" enable-background="new 0 0 3691 3691" xml:space="preserve">
<path fill="#000000" opacity="1.000000" stroke="none" 
	d="
M2.000000,1392.000000 
	C2.000000,928.000000 2.000000,465.000000 2.000000,2.000000 
	C1232.666626,2.000000 2463.333252,2.000000 3694.000000,2.000000 
	C3694.000000,1232.666626 3694.000000,2463.333252 3694.000000,3694.000000 
	C2463.333252,3694.000000 1232.666626,3694.000000 2.000000,3694.000000 
	C2.000000,2927.000000 2.000000,2160.000000 2.000000,1392.000000 
M2682.604736,218.392548 
	C2661.632568,208.260590 2640.733154,197.974884 2619.675293,188.024170 
	C2542.856201,151.723434 2463.541992,121.788918 2382.341309,97.017044 
	C2290.984619,69.146942 2197.912842,48.778118 2103.277344,35.470074 
	C2052.625732,28.347246 2001.775635,23.439035 1950.762817,20.460672 
	C1918.233154,18.561441 1885.600464,17.978111 1853.007568,17.753695 
	C1828.410400,17.584330 1803.782349,18.495901 1779.205078,19.688772 
	C1747.041260,21.249865 1714.897461,23.331268 1682.774780,25.607702 
	C1639.367676,28.683828 1596.335693,34.891575 1553.385986,41.752346 
	C1502.170532,49.933464 1451.479248,60.712536 1401.182617,73.208786 
	C1346.630127,86.762398 1292.935425,103.291481 1239.911865,122.017601 
	C1143.390503,156.105713 1050.404175,198.005875 960.837524,247.530380 
	C885.559021,289.154510 813.880493,336.299500 745.123535,387.956116 
	C683.329834,434.381287 625.084290,484.937073 569.750000,538.830505 
	C535.885376,571.813354 503.632111,606.352112 472.399078,641.870544 
	C429.949341,690.144592 390.241791,740.554626 353.228943,793.069641 
	C304.074127,862.812134 259.888702,935.610474 220.964569,1011.555908 
	C190.895645,1070.223877 163.881760,1130.279541 140.279816,1191.846191 
	C114.307152,1259.597046 92.267647,1328.625122 74.601952,1398.990112 
	C57.846928,1465.727783 44.863720,1533.208618 35.524593,1601.427490 
	C28.225266,1654.746338 23.838610,1708.303833 20.537548,1761.951782 
	C18.802191,1790.154175 18.846128,1818.473511 18.426567,1846.745239 
	C18.288929,1856.019897 19.342363,1865.306519 19.640503,1874.594360 
	C20.376621,1897.526611 20.695501,1920.476318 21.744984,1943.393188 
	C22.625469,1962.619629 24.375748,1981.805054 25.608965,2001.016968 
	C28.269331,2042.461670 33.744457,2083.581543 39.891914,2124.617188 
	C48.264549,2180.505859 59.439220,2235.848877 73.134636,2290.671387 
	C87.487068,2348.124268 104.525307,2404.776611 124.281258,2460.611572 
	C146.937500,2524.643311 173.243286,2587.150879 202.956451,2648.206787 
	C228.891525,2701.499268 257.266846,2753.484375 288.286591,2804.003418 
	C325.073364,2863.914551 365.012054,2921.647461 408.450439,2976.931396 
	C446.908447,3025.876465 487.166443,3073.294189 531.128418,3117.410400 
	C560.729736,3147.115479 590.385925,3176.823486 621.205566,3205.241699 
	C657.145142,3238.381104 694.981445,3269.372314 733.731750,3299.242920 
	C789.963745,3342.589844 848.786499,3382.112061 909.532166,3418.750244 
	C967.992737,3454.010742 1028.557983,3485.336670 1090.719482,3513.614014 
	C1145.251099,3538.420654 1200.802612,3560.591797 1257.506348,3579.894775 
	C1313.255249,3598.872559 1369.733887,3615.275146 1427.072266,3628.795654 
	C1490.822266,3643.827881 1555.141479,3655.719971 1620.123047,3663.701904 
	C1655.677368,3668.069580 1691.402954,3671.324463 1727.138306,3673.850830 
	C1757.621460,3676.006104 1788.221558,3676.687500 1818.783813,3677.479736 
	C1839.073608,3678.005859 1859.398682,3677.995117 1879.688843,3677.476318 
	C1906.254639,3676.797363 1932.822998,3675.743896 1959.350464,3674.177246 
	C1985.187500,3672.651123 2011.058105,3671.013672 2036.763184,3668.096680 
	C2074.351562,3663.831055 2111.946777,3659.255371 2149.283691,3653.228027 
	C2205.717529,3644.117920 2261.605225,3632.139160 2316.881836,3617.433350 
	C2383.792725,3599.632568 2449.535156,3578.226562 2514.031738,3553.083252 
	C2578.236084,3528.053711 2640.716553,3499.221924 2701.830566,3467.348145 
	C2758.562500,3437.760010 2813.422363,3405.012207 2866.385254,3369.238037 
	C2902.492676,3344.849121 2937.661377,3318.998535 2972.427002,3292.713379 
	C3019.153320,3257.385254 3063.232178,3218.820801 3105.724365,3178.517578 
	C3126.734619,3158.589355 3147.244873,3138.084229 3167.149170,3117.052490 
	C3192.062500,3090.727295 3216.731201,3064.119873 3240.426025,3036.701416 
	C3296.216553,2972.142090 3346.474121,2903.433838 3392.411377,2831.515137 
	C3440.155518,2756.767578 3482.067627,2678.885986 3518.527344,2598.090332 
	C3562.813477,2499.950195 3597.841309,2398.530029 3623.998047,2294.089600 
	C3640.553711,2227.985596 3653.314941,2161.154541 3662.530273,2093.593262 
	C3669.848633,2039.938599 3674.364990,1986.062988 3677.469238,1932.068359 
	C3679.186523,1902.194336 3679.123047,1872.212524 3679.579834,1842.274902 
	C3679.701172,1834.332153 3678.632568,1826.378296 3678.363037,1818.421021 
	C3677.619873,1796.486572 3677.459717,1774.522461 3676.234131,1752.616699 
	C3674.713623,1725.446899 3672.751221,1698.287354 3670.244629,1671.191406 
	C3667.799072,1644.758057 3665.118408,1618.310425 3661.315430,1592.046387 
	C3653.746582,1539.772827 3644.138916,1487.863037 3632.289795,1436.352051 
	C3615.795654,1364.649414 3595.083252,1294.208130 3570.091309,1225.048340 
	C3542.356934,1148.298950 3509.397949,1073.827393 3471.678711,1001.426392 
	C3440.885498,942.320129 3406.938965,885.112305 3369.927246,829.736023 
	C3335.325928,777.965332 3298.571777,727.730042 3258.186768,680.294067 
	C3232.544434,650.174377 3206.479004,620.376526 3179.624756,591.339294 
	C3159.290771,569.352295 3137.769775,548.419983 3116.119629,527.705505 
	C3093.536133,506.097961 3070.591309,484.825500 3047.054932,464.264435 
	C2985.575439,410.556549 2920.241943,361.912842 2852.050537,317.030914 
	C2797.775391,281.308319 2741.629883,248.869980 2682.604736,218.392548 
z"/>
<path fill="#FF7700" opacity="1.000000" stroke="none" 
	d="
M2683.251953,218.755356 
	C2741.629883,248.869980 2797.775391,281.308319 2852.050537,317.030914 
	C2920.241943,361.912842 2985.575439,410.556549 3047.054932,464.264435 
	C3070.591309,484.825500 3093.536133,506.097961 3116.119629,527.705505 
	C3137.769775,548.419983 3159.290771,569.352295 3179.624756,591.339294 
	C3206.479004,620.376526 3232.544434,650.174377 3258.186768,680.294067 
	C3298.571777,727.730042 3335.325928,777.965332 3369.927246,829.736023 
	C3406.938965,885.112305 3440.885498,942.320129 3471.678711,1001.426392 
	C3509.397949,1073.827393 3542.356934,1148.298950 3570.091309,1225.048340 
	C3595.083252,1294.208130 3615.795654,1364.649414 3632.289795,1436.352051 
	C3644.138916,1487.863037 3653.746582,1539.772827 3661.315430,1592.046387 
	C3665.118408,1618.310425 3667.799072,1644.758057 3670.244629,1671.191406 
	C3672.751221,1698.287354 3674.713623,1725.446899 3676.234131,1752.616699 
	C3677.459717,1774.522461 3677.619873,1796.486572 3678.363037,1818.421021 
	C3678.632568,1826.378296 3679.701172,1834.332153 3679.579834,1842.274902 
	C3679.123047,1872.212524 3679.186523,1902.194336 3677.469238,1932.068359 
	C3674.364990,1986.062988 3669.848633,2039.938599 3662.530273,2093.593262 
	C3653.314941,2161.154541 3640.553711,2227.985596 3623.998047,2294.089600 
	C3597.841309,2398.530029 3562.813477,2499.950195 3518.527344,2598.090332 
	C3482.067627,2678.885986 3440.155518,2756.767578 3392.411377,2831.515137 
	C3346.474121,2903.433838 3296.216553,2972.142090 3240.426025,3036.701416 
	C3216.731201,3064.119873 3192.062500,3090.727295 3167.149170,3117.052490 
	C3147.244873,3138.084229 3126.734619,3158.589355 3105.724365,3178.517578 
	C3063.232178,3218.820801 3019.153320,3257.385254 2972.427002,3292.713379 
	C2937.661377,3318.998535 2902.492676,3344.849121 2866.385254,3369.238037 
	C2813.422363,3405.012207 2758.562500,3437.760010 2701.830566,3467.348145 
	C2640.716553,3499.221924 2578.236084,3528.053711 2514.031738,3553.083252 
	C2449.535156,3578.226562 2383.792725,3599.632568 2316.881836,3617.433350 
	C2261.605225,3632.139160 2205.717529,3644.117920 2149.283691,3653.228027 
	C2111.946777,3659.255371 2074.351562,3663.831055 2036.763184,3668.096680 
	C2011.058105,3671.013672 1985.187500,3672.651123 1959.350464,3674.177246 
	C1932.822998,3675.743896 1906.254639,3676.797363 1879.688843,3677.476318 
	C1859.398682,3677.995117 1839.073608,3678.005859 1818.783813,3677.479736 
	C1788.221558,3676.687500 1757.621460,3676.006104 1727.138306,3673.850830 
	C1691.402954,3671.324463 1655.677368,3668.069580 1620.123047,3663.701904 
	C1555.141479,3655.719971 1490.822266,3643.827881 1427.072266,3628.795654 
	C1369.733887,3615.275146 1313.255249,3598.872559 1257.506348,3579.894775 
	C1200.802612,3560.591797 1145.251099,3538.420654 1090.719482,3513.614014 
	C1028.557983,3485.336670 967.992737,3454.010742 909.532166,3418.750244 
	C848.786499,3382.112061 789.963745,3342.589844 733.731750,3299.242920 
	C694.981445,3269.372314 657.145142,3238.381104 621.205566,3205.241699 
	C590.385925,3176.823486 560.729736,3147.115479 531.128418,3117.410400 
	C487.166443,3073.294189 446.908447,3025.876465 408.450439,2976.931396 
	C365.012054,2921.647461 325.073364,2863.914551 288.286591,2804.003418 
	C257.266846,2753.484375 228.891525,2701.499268 202.956451,2648.206787 
	C173.243286,2587.150879 146.937500,2524.643311 124.281258,2460.611572 
	C104.525307,2404.776611 87.487068,2348.124268 73.134636,2290.671387 
	C59.439220,2235.848877 48.264549,2180.505859 39.891914,2124.617188 
	C33.744457,2083.581543 28.269331,2042.461670 25.608965,2001.016968 
	C24.375748,1981.805054 22.625469,1962.619629 21.744984,1943.393188 
	C20.695501,1920.476318 20.376621,1897.526611 19.640503,1874.594360 
	C19.342363,1865.306519 18.288929,1856.019897 18.426567,1846.745239 
	C18.846128,1818.473511 18.802191,1790.154175 20.537548,1761.951782 
	C23.838610,1708.303833 28.225266,1654.746338 35.524593,1601.427490 
	C44.863720,1533.208618 57.846928,1465.727783 74.601952,1398.990112 
	C92.267647,1328.625122 114.307152,1259.597046 140.279816,1191.846191 
	C163.881760,1130.279541 190.895645,1070.223877 220.964569,1011.555908 
	C259.888702,935.610474 304.074127,862.812134 353.228943,793.069641 
	C390.241791,740.554626 429.949341,690.144592 472.399078,641.870544 
	C503.632111,606.352112 535.885376,571.813354 569.750000,538.830505 
	C625.084290,484.937073 683.329834,434.381287 745.123535,387.956116 
	C813.880493,336.299500 885.559021,289.154510 960.837524,247.530380 
	C1050.404175,198.005875 1143.390503,156.105713 1239.911865,122.017601 
	C1292.935425,103.291481 1346.630127,86.762398 1401.182617,73.208786 
	C1451.479248,60.712536 1502.170532,49.933464 1553.385986,41.752346 
	C1596.335693,34.891575 1639.367676,28.683828 1682.774780,25.607702 
	C1714.897461,23.331268 1747.041260,21.249865 1779.205078,19.688772 
	C1803.782349,18.495901 1828.410400,17.584330 1853.007568,17.753695 
	C1885.600464,17.978111 1918.233154,18.561441 1950.762817,20.460672 
	C2001.775635,23.439035 2052.625732,28.347246 2103.277344,35.470074 
	C2197.912842,48.778118 2290.984619,69.146942 2382.341309,97.017044 
	C2463.541992,121.788918 2542.856201,151.723434 2619.675293,188.024170 
	C2640.733154,197.974884 2661.632568,208.260590 2683.251953,218.755356 
M3511.395752,1945.053955 
	C3553.222168,1944.769531 3591.320557,1916.507935 3604.123535,1876.080811 
	C3607.222900,1866.294800 3610.064697,1856.378052 3608.147217,1844.606079 
	C3607.832031,1838.657959 3608.217041,1832.573608 3607.091064,1826.783203 
	C3597.862549,1779.328979 3558.625000,1746.181396 3510.944824,1745.226929 
	C3463.079834,1744.269043 3422.448975,1775.533569 3411.254639,1822.442627 
	C3409.604736,1829.356812 3410.020752,1836.763916 3408.859619,1845.588989 
	C3408.742920,1893.069580 3441.867432,1934.093994 3488.364258,1943.384888 
	C3495.327148,1944.776245 3502.735840,1943.935425 3511.395752,1945.053955 
M187.451309,1945.064331 
	C232.121826,1944.562134 271.842621,1912.596802 281.915710,1868.483032 
	C283.571259,1861.232788 283.116974,1853.500854 284.083496,1844.226196 
	C283.923645,1839.575806 284.253418,1834.847656 283.528351,1830.287109 
	C276.120392,1783.693115 240.406586,1751.711792 199.007004,1746.154297 
	C147.314392,1739.215210 107.208710,1769.152832 91.824799,1807.127930 
	C87.062675,1818.883057 83.416031,1830.986084 84.526314,1845.713745 
	C83.892883,1892.671021 119.029602,1935.508545 165.278595,1943.635742 
	C171.994370,1944.815918 179.044388,1944.093872 187.451309,1945.064331 
M3343.649170,2252.490723 
	C3344.811523,2225.539795 3346.943115,2198.590332 3346.981934,2171.637695 
	C3347.268311,1973.323975 3347.168213,1775.009399 3347.088623,1576.695190 
	C3347.080566,1556.370850 3346.895752,1536.023438 3345.931885,1515.727661 
	C3344.215820,1479.606201 3338.383545,1444.222656 3324.510498,1410.529907 
	C3305.669678,1364.772095 3274.233887,1331.781128 3227.188965,1314.674683 
	C3208.267578,1307.794312 3188.602783,1304.422729 3168.611328,1302.884888 
	C3138.455322,1300.565308 3108.608154,1302.743530 3079.531494,1311.220337 
	C3027.276855,1326.454102 2992.284424,1360.748413 2972.123291,1410.710449 
	C2956.044678,1450.555298 2950.472168,1492.444458 2950.421143,1534.993896 
	C2950.162842,1750.972900 2950.197998,1966.952271 2950.481445,2182.931152 
	C2950.512451,2206.543701 2951.957275,2230.234619 2954.247803,2253.742920 
	C2957.036865,2282.369873 2964.095703,2310.135010 2976.058594,2336.463623 
	C2998.643066,2386.168213 3036.374023,2417.589111 3089.590576,2430.152832 
	C3123.137939,2438.072754 3157.045166,2438.126465 3190.911865,2433.210449 
	C3214.143066,2429.838379 3236.194092,2422.300293 3256.462158,2410.107910 
	C3291.781250,2388.860840 3313.859863,2357.195557 3327.925049,2319.242188 
	C3335.718262,2298.213623 3340.155518,2276.378174 3343.649170,2252.490723 
M2755.437988,1474.018555 
	C2756.687988,1494.286621 2758.824463,1514.546265 2759.016357,1534.824341 
	C2759.523193,1588.477295 2759.176270,1642.138062 2759.212891,1695.795776 
	C2759.215576,1699.601929 2759.574707,1703.407837 2759.756104,1706.980225 
	C2794.589600,1706.980225 2828.128174,1706.980225 2862.672363,1706.980225 
	C2862.672363,1702.772827 2862.672363,1699.176636 2862.672363,1695.580444 
	C2862.672363,1669.918091 2862.746826,1644.255493 2862.654785,1618.593506 
	C2862.517090,1580.269287 2862.754639,1541.934448 2861.906494,1503.624634 
	C2861.187744,1471.146240 2855.835938,1439.311157 2843.884033,1408.887207 
	C2823.291992,1356.470093 2785.929688,1323.012207 2731.033936,1309.430542 
	C2695.572998,1300.656982 2659.841553,1300.097534 2623.904053,1305.663574 
	C2560.245850,1315.522949 2515.994385,1349.986938 2492.162109,1410.072754 
	C2476.062744,1450.662109 2470.955078,1493.274414 2470.905273,1536.458252 
	C2470.658447,1750.755249 2470.795410,1965.052612 2470.904297,2179.349854 
	C2470.913086,2196.672119 2471.169922,2214.029785 2472.287354,2231.307861 
	C2474.423340,2264.344482 2479.961426,2296.784912 2492.149414,2327.789551 
	C2511.759277,2377.673340 2546.288330,2411.860352 2598.109619,2427.325684 
	C2630.171875,2436.894287 2663.076416,2438.115723 2696.154541,2434.898926 
	C2707.377441,2433.808105 2718.626953,2431.915527 2729.569824,2429.201660 
	C2782.839844,2415.989258 2819.460938,2383.333252 2840.509521,2332.885010 
	C2855.347656,2297.322021 2861.804932,2259.918213 2862.039062,2221.730713 
	C2862.729492,2109.088135 2862.527588,1996.439819 2862.627441,1883.793823 
	C2862.629395,1881.600586 2862.050537,1879.406860 2861.741211,1877.201904 
	C2797.606934,1877.201904 2734.146973,1877.201904 2670.636230,1877.201904 
	C2670.636230,1909.401489 2670.636230,1940.871338 2670.636230,1973.402100 
	C2703.138916,1973.402100 2734.974365,1973.402100 2767.874023,1973.402100 
	C2767.874023,1977.702515 2767.874268,1980.943604 2767.874268,1984.184692 
	C2767.874268,2009.847046 2767.879883,2035.509521 2767.873535,2061.171875 
	C2767.860596,2114.162842 2768.037842,2167.155029 2767.737305,2220.144287 
	C2767.596680,2244.912598 2764.823730,2269.378174 2754.662842,2292.396484 
	C2744.208008,2316.080811 2726.815186,2331.760010 2701.514404,2338.390625 
	C2686.851562,2342.233398 2671.997070,2343.412109 2656.937012,2342.284668 
	C2629.182861,2340.206543 2608.197266,2326.931641 2595.036133,2302.618652 
	C2589.395020,2292.197754 2585.320068,2280.694824 2582.106934,2269.241943 
	C2575.295898,2244.966797 2574.968262,2219.890381 2574.967773,2194.866699 
	C2574.962402,1978.903076 2574.945312,1762.939453 2575.009277,1546.975830 
	C2575.013428,1533.325439 2575.098633,1519.631958 2576.140137,1506.034668 
	C2577.933350,1482.621948 2582.813965,1459.869141 2594.297852,1439.043701 
	C2607.333252,1415.404663 2626.876709,1400.556152 2653.909424,1396.865112 
	C2662.428467,1395.701904 2671.249268,1395.527344 2679.825195,1396.219727 
	C2712.723145,1398.875488 2736.228271,1414.909668 2747.876465,1446.395874 
	C2750.978516,1454.781250 2752.700195,1463.677368 2755.437988,1474.018555 
M2029.415039,2326.541260 
	C2014.875732,2337.882812 1998.007446,2342.175293 1979.957397,2342.755371 
	C1930.945435,2344.330811 1898.337280,2319.917969 1887.488770,2272.198730 
	C1884.419556,2258.697998 1883.410156,2244.492676 1883.302979,2230.596191 
	C1882.855469,2172.609375 1883.119995,2114.617432 1883.091064,2056.627197 
	C1883.089111,2052.759033 1882.818237,2048.891113 1882.677979,2045.170898 
	C1847.623779,2045.170898 1813.804932,2045.170898 1779.550537,2045.170898 
	C1779.340454,2048.438965 1779.027466,2051.046631 1779.026611,2053.654297 
	C1779.006714,2113.644043 1778.971802,2173.633789 1779.052368,2233.623535 
	C1779.085693,2258.361084 1781.349609,2282.859619 1788.077759,2306.781250 
	C1803.809204,2362.714844 1837.133301,2403.327393 1892.711670,2422.786133 
	C1945.239502,2441.177246 1998.772095,2442.134033 2051.606934,2424.169434 
	C2105.133545,2405.969727 2139.888916,2368.776367 2156.291504,2314.530273 
	C2163.016113,2292.292236 2165.114014,2269.484375 2165.136230,2246.418213 
	C2165.202148,2177.763184 2165.556152,2109.104492 2164.922119,2040.455444 
	C2164.729248,2019.550781 2163.028076,1998.457886 2159.702393,1977.824585 
	C2151.886963,1929.334351 2128.654541,1889.014282 2091.539307,1856.731323 
	C2065.434326,1834.025024 2035.731201,1817.010986 2005.123047,1801.309082 
	C1982.289307,1789.595459 1959.894409,1777.068726 1939.684082,1761.061035 
	C1918.571289,1744.338501 1904.065308,1723.112305 1898.825439,1696.594360 
	C1896.261719,1683.620239 1895.290527,1670.152344 1895.207642,1656.897949 
	C1894.836548,1597.577026 1895.019897,1538.252441 1895.082275,1478.929199 
	C1895.088623,1472.940796 1895.135620,1466.880371 1896.003052,1460.976685 
	C1900.528442,1430.179443 1916.783325,1408.993774 1947.092285,1399.515625 
	C1958.413452,1395.975220 1970.018188,1395.611206 1981.717285,1395.969849 
	C2019.617554,1397.131470 2045.819702,1417.419067 2056.518799,1453.728516 
	C2061.282227,1469.894287 2062.331787,1486.453125 2062.325684,1503.164307 
	C2062.306396,1555.155518 2062.319580,1607.146606 2062.320068,1659.137817 
	C2062.320312,1662.660278 2062.320312,1666.182739 2062.320312,1669.622314 
	C2096.316162,1669.622314 2128.822754,1669.622314 2161.733398,1669.622314 
	C2161.888672,1667.403198 2162.100098,1665.794922 2162.099609,1664.186646 
	C2162.081055,1607.196655 2162.208740,1550.205933 2161.931641,1493.217163 
	C2161.804443,1467.101318 2158.218506,1441.380127 2149.766113,1416.560669 
	C2130.962646,1361.348267 2093.625977,1325.385620 2037.174683,1310.199219 
	C1994.439453,1298.702515 1951.405151,1299.095093 1908.778809,1310.791870 
	C1882.087891,1318.115845 1858.025513,1330.893311 1838.008423,1350.418579 
	C1804.905640,1382.708252 1790.111328,1422.772827 1789.784180,1468.288696 
	C1789.319580,1532.940918 1789.566162,1597.599609 1789.780884,1662.254517 
	C1789.822754,1674.887329 1790.597900,1687.568726 1791.903442,1700.137451 
	C1797.756836,1756.487305 1822.663574,1802.457764 1868.761108,1835.778931 
	C1887.325928,1849.198242 1907.342529,1860.667847 1927.060059,1872.418091 
	C1950.221802,1886.220825 1974.307617,1898.530029 1997.031494,1912.996582 
	C2027.961304,1932.687012 2050.181152,1959.616455 2056.751465,1996.746216 
	C2059.464355,2012.077148 2060.763672,2027.840942 2060.864502,2043.419800 
	C2061.298828,2110.405518 2061.080811,2177.395752 2061.002930,2244.384521 
	C2060.994629,2251.705322 2060.765137,2259.072510 2059.936035,2266.337891 
	C2057.282959,2289.593262 2049.012451,2310.188721 2029.415039,2326.541260 
M963.000000,1808.089844 
	C927.348206,1807.947876 891.696472,1807.807007 856.044861,1807.639771 
	C855.788635,1807.638550 855.519165,1807.291748 855.282898,1807.076538 
	C855.037292,1806.852783 854.824585,1806.593140 854.597412,1806.349243 
	C852.607422,1780.060303 853.596741,1418.540527 855.973511,1409.871338 
	C925.148743,1409.871338 994.624207,1409.871338 1064.163940,1409.871338 
	C1064.163940,1378.545776 1064.163940,1348.294678 1064.163940,1317.539551 
	C958.915527,1317.539551 854.140442,1317.539551 749.469910,1317.539551 
	C747.448975,1331.778931 748.127136,2412.626221 750.057312,2419.516357 
	C770.011719,2421.438965 1060.302979,2420.535156 1067.445068,2418.528076 
	C1069.197021,2399.287354 1068.447266,2334.281982 1066.087402,2326.146240 
	C995.920227,2326.146240 925.441650,2326.146240 854.738892,2326.146240 
	C854.738892,2184.299072 854.738892,2043.501953 854.738892,1901.684326 
	C915.498291,1901.684326 975.642700,1901.684326 1036.250244,1901.684326 
	C1036.250244,1870.126465 1036.250244,1839.590454 1036.250244,1808.089844 
	C1012.166138,1808.089844 988.583069,1808.089844 963.000000,1808.089844 
M1342.321289,2249.000000 
	C1342.321289,1970.840576 1342.321289,1692.681274 1342.321289,1413.600952 
	C1359.126587,1413.600952 1374.725586,1413.600952 1390.324707,1413.600952 
	C1406.321167,1413.600952 1422.317627,1413.626953 1438.314087,1413.593384 
	C1453.807617,1413.560669 1469.301147,1413.466675 1484.576050,1413.400391 
	C1486.578369,1395.547119 1485.835327,1324.465454 1483.716309,1317.488037 
	C1355.286499,1317.488037 1226.817139,1317.488037 1098.206421,1317.488037 
	C1098.206421,1349.662354 1098.206421,1381.152588 1098.206421,1413.489868 
	C1145.262573,1413.832642 1191.698364,1413.332031 1239.097900,1413.777100 
	C1239.097900,1749.938965 1239.097900,2084.706543 1239.097900,2419.458008 
	C1273.937012,2419.458008 1307.765747,2419.458008 1342.321289,2419.458008 
	C1342.321289,2362.865967 1342.321289,2306.932861 1342.321289,2249.000000 
M411.000854,1316.823486 
	C396.740234,1316.823486 382.479584,1316.823486 367.852295,1316.823486 
	C367.852295,1685.070312 367.852295,2052.140137 367.852295,2419.440674 
	C469.297699,2419.440674 570.068665,2419.440674 671.117065,2419.440674 
	C671.117065,2387.950439 671.117065,2357.132080 671.117065,2325.271729 
	C637.610046,2325.271729 604.690063,2325.277588 571.770081,2325.270264 
	C538.900940,2325.262939 506.030792,2325.305664 473.847992,2325.239502 
	C473.055298,2323.455566 472.905670,2323.169189 472.800232,2322.867432 
	C472.690552,2322.553955 472.597626,2322.229248 472.545227,2321.901855 
	C472.492828,2321.574707 472.498108,2321.238037 472.480957,2320.905518 
	C472.463837,2320.572754 472.445557,2320.239990 472.436554,2319.906982 
	C472.427582,2319.573975 472.426849,2319.240234 472.426849,2318.906982 
	C472.423035,1987.957764 472.419586,1657.008545 472.415985,1326.059326 
	C472.415955,1325.392822 472.416168,1324.726196 472.412262,1324.059692 
	C472.408356,1323.393188 472.403107,1322.726440 472.391144,1322.060059 
	C472.385193,1321.727051 472.365570,1321.394287 472.347076,1321.061523 
	C472.328552,1320.728882 472.332733,1320.391235 472.273499,1320.065430 
	C472.214783,1319.742432 472.098175,1319.428345 471.990936,1319.115845 
	C471.882812,1318.800781 471.813293,1318.448120 471.619354,1318.193848 
	C471.430969,1317.946899 471.106171,1317.803955 469.729645,1316.823608 
	C451.568024,1316.823608 432.284363,1316.823608 411.000854,1316.823486 
M1681.467896,1416.273193 
	C1682.208618,1395.322876 1683.442383,1374.374268 1683.516846,1353.421631 
	C1683.566528,1339.454712 1681.725464,1325.543701 1676.454590,1312.327271 
	C1670.454712,1297.283081 1659.563477,1287.892822 1643.974121,1283.975952 
	C1628.870850,1280.181396 1613.534668,1280.370361 1598.360352,1282.990601 
	C1578.117432,1286.485840 1564.570557,1298.239380 1559.451416,1318.366821 
	C1557.171021,1327.334106 1555.629883,1336.642212 1555.114014,1345.871704 
	C1554.182373,1362.542725 1555.042480,1379.174072 1561.277710,1395.030029 
	C1568.465942,1413.309814 1581.802734,1424.056641 1601.121338,1427.365112 
	C1604.640747,1427.968018 1608.220581,1428.217163 1612.418091,1428.704468 
	C1612.418091,1432.484497 1612.643188,1435.759766 1612.371094,1438.993164 
	C1611.814087,1445.611572 1611.481201,1452.305908 1610.183594,1458.794312 
	C1606.353027,1477.948730 1596.259888,1486.582886 1576.587524,1488.220459 
	C1572.026978,1488.600098 1567.465088,1488.964722 1563.046387,1489.324585 
	C1563.046387,1507.518799 1563.046387,1524.629395 1563.046387,1542.099976 
	C1573.393921,1542.099976 1583.090698,1542.924072 1592.600952,1541.942871 
	C1619.230347,1539.195312 1640.869873,1527.287231 1655.261230,1504.227295 
	C1660.331909,1496.102661 1664.463501,1487.259766 1668.004761,1478.340210 
	C1675.674438,1459.022339 1678.756714,1438.590576 1681.467896,1416.273193 
M1883.004883,370.813049 
	C1894.482666,371.339294 1905.598145,369.269897 1916.272827,365.323395 
	C1957.291260,350.158569 1987.589966,308.288788 1979.072021,257.192657 
	C1970.159912,203.732422 1922.376465,175.546448 1882.188965,175.735153 
	C1829.798950,175.981186 1774.495850,223.487488 1787.213989,292.318024 
	C1795.337280,336.281769 1834.799561,370.929169 1883.004883,370.813049 
M1801.945190,3366.949219 
	C1791.115845,3383.512207 1786.179321,3401.383789 1785.517578,3421.465820 
	C1784.108154,3464.237549 1818.093506,3513.866211 1874.326050,3518.732178 
	C1915.359741,3522.282959 1954.252075,3499.801270 1971.702271,3462.387939 
	C1988.597656,3426.163574 1980.346313,3380.232910 1951.226685,3351.707764 
	C1909.030151,3310.371826 1838.310791,3315.197998 1801.945190,3366.949219 
z"/>
<path fill="#020101" opacity="1.000000" stroke="none" 
	d="
M3343.523682,2253.376465 
	C3340.155518,2276.378174 3335.718262,2298.213623 3327.925049,2319.242188 
	C3313.859863,2357.195557 3291.781250,2388.860840 3256.462158,2410.107910 
	C3236.194092,2422.300293 3214.143066,2429.838379 3190.911865,2433.210449 
	C3157.045166,2438.126465 3123.137939,2438.072754 3089.590576,2430.152832 
	C3036.374023,2417.589111 2998.643066,2386.168213 2976.058594,2336.463623 
	C2964.095703,2310.135010 2957.036865,2282.369873 2954.247803,2253.742920 
	C2951.957275,2230.234619 2950.512451,2206.543701 2950.481445,2182.931152 
	C2950.197998,1966.952271 2950.162842,1750.972900 2950.421143,1534.993896 
	C2950.472168,1492.444458 2956.044678,1450.555298 2972.123291,1410.710449 
	C2992.284424,1360.748413 3027.276855,1326.454102 3079.531494,1311.220337 
	C3108.608154,1302.743530 3138.455322,1300.565308 3168.611328,1302.884888 
	C3188.602783,1304.422729 3208.267578,1307.794312 3227.188965,1314.674683 
	C3274.233887,1331.781128 3305.669678,1364.772095 3324.510498,1410.529907 
	C3338.383545,1444.222656 3344.215820,1479.606201 3345.931885,1515.727661 
	C3346.895752,1536.023438 3347.080566,1556.370850 3347.088623,1576.695190 
	C3347.168213,1775.009399 3347.268311,1973.323975 3346.981934,2171.637695 
	C3346.943115,2198.590332 3344.811523,2225.539795 3343.523682,2253.376465 
M3243.058350,1683.000732 
	C3243.058350,1637.011108 3243.335205,1591.018799 3242.917236,1545.032959 
	C3242.757080,1527.408813 3241.670898,1509.729004 3239.811768,1492.201294 
	C3237.691650,1472.213013 3232.330811,1452.953125 3222.021484,1435.416016 
	C3210.844727,1416.403931 3194.815918,1403.214111 3173.125000,1398.780396 
	C3161.524414,1396.409302 3149.244385,1395.599854 3137.428711,1396.403320 
	C3110.793945,1398.214478 3089.802979,1410.794922 3076.172852,1434.015625 
	C3071.163330,1442.550415 3067.201660,1451.899048 3064.102539,1461.317505 
	C3056.643066,1483.988647 3054.395996,1507.583496 3054.385742,1531.304810 
	C3054.289062,1751.256592 3054.309814,1971.208374 3054.428467,2191.160156 
	C3054.436279,2205.804688 3054.995850,2220.493164 3056.234131,2235.081787 
	C3057.873047,2254.382568 3061.709717,2273.272217 3069.555176,2291.195557 
	C3084.294434,2324.867432 3109.653809,2342.335693 3146.669434,2342.739502 
	C3185.595215,2343.164062 3212.856445,2325.784180 3228.118896,2289.936768 
	C3231.363037,2282.316650 3233.901123,2274.321777 3235.991699,2266.298340 
	C3242.347656,2241.904541 3243.042480,2216.909424 3243.045898,2191.889648 
	C3243.069580,2022.926758 3243.058105,1853.963867 3243.058350,1683.000732 
z"/>
<path fill="#020101" opacity="1.000000" stroke="none" 
	d="
M2755.246826,1473.178711 
	C2752.700195,1463.677368 2750.978516,1454.781250 2747.876465,1446.395874 
	C2736.228271,1414.909668 2712.723145,1398.875488 2679.825195,1396.219727 
	C2671.249268,1395.527344 2662.428467,1395.701904 2653.909424,1396.865112 
	C2626.876709,1400.556152 2607.333252,1415.404663 2594.297852,1439.043701 
	C2582.813965,1459.869141 2577.933350,1482.621948 2576.140137,1506.034668 
	C2575.098633,1519.631958 2575.013428,1533.325439 2575.009277,1546.975830 
	C2574.945312,1762.939453 2574.962402,1978.903076 2574.967773,2194.866699 
	C2574.968262,2219.890381 2575.295898,2244.966797 2582.106934,2269.241943 
	C2585.320068,2280.694824 2589.395020,2292.197754 2595.036133,2302.618652 
	C2608.197266,2326.931641 2629.182861,2340.206543 2656.937012,2342.284668 
	C2671.997070,2343.412109 2686.851562,2342.233398 2701.514404,2338.390625 
	C2726.815186,2331.760010 2744.208008,2316.080811 2754.662842,2292.396484 
	C2764.823730,2269.378174 2767.596680,2244.912598 2767.737305,2220.144287 
	C2768.037842,2167.155029 2767.860596,2114.162842 2767.873535,2061.171875 
	C2767.879883,2035.509521 2767.874268,2009.847046 2767.874268,1984.184692 
	C2767.874268,1980.943604 2767.874023,1977.702515 2767.874023,1973.402100 
	C2734.974365,1973.402100 2703.138916,1973.402100 2670.636230,1973.402100 
	C2670.636230,1940.871338 2670.636230,1909.401489 2670.636230,1877.201904 
	C2734.146973,1877.201904 2797.606934,1877.201904 2861.741211,1877.201904 
	C2862.050537,1879.406860 2862.629395,1881.600586 2862.627441,1883.793823 
	C2862.527588,1996.439819 2862.729492,2109.088135 2862.039062,2221.730713 
	C2861.804932,2259.918213 2855.347656,2297.322021 2840.509521,2332.885010 
	C2819.460938,2383.333252 2782.839844,2415.989258 2729.569824,2429.201660 
	C2718.626953,2431.915527 2707.377441,2433.808105 2696.154541,2434.898926 
	C2663.076416,2438.115723 2630.171875,2436.894287 2598.109619,2427.325684 
	C2546.288330,2411.860352 2511.759277,2377.673340 2492.149414,2327.789551 
	C2479.961426,2296.784912 2474.423340,2264.344482 2472.287354,2231.307861 
	C2471.169922,2214.029785 2470.913086,2196.672119 2470.904297,2179.349854 
	C2470.795410,1965.052612 2470.658447,1750.755249 2470.905273,1536.458252 
	C2470.955078,1493.274414 2476.062744,1450.662109 2492.162109,1410.072754 
	C2515.994385,1349.986938 2560.245850,1315.522949 2623.904053,1305.663574 
	C2659.841553,1300.097534 2695.572998,1300.656982 2731.033936,1309.430542 
	C2785.929688,1323.012207 2823.291992,1356.470093 2843.884033,1408.887207 
	C2855.835938,1439.311157 2861.187744,1471.146240 2861.906494,1503.624634 
	C2862.754639,1541.934448 2862.517090,1580.269287 2862.654785,1618.593506 
	C2862.746826,1644.255493 2862.672363,1669.918091 2862.672363,1695.580444 
	C2862.672363,1699.176636 2862.672363,1702.772827 2862.672363,1706.980225 
	C2828.128174,1706.980225 2794.589600,1706.980225 2759.756104,1706.980225 
	C2759.574707,1703.407837 2759.215576,1699.601929 2759.212891,1695.795776 
	C2759.176270,1642.138062 2759.523193,1588.477295 2759.016357,1534.824341 
	C2758.824463,1514.546265 2756.687988,1494.286621 2755.246826,1473.178711 
z"/>
<path fill="#020101" opacity="1.000000" stroke="none" 
	d="
M2029.996948,2326.118408 
	C2049.012451,2310.188721 2057.282959,2289.593262 2059.936035,2266.337891 
	C2060.765137,2259.072510 2060.994629,2251.705322 2061.002930,2244.384521 
	C2061.080811,2177.395752 2061.298828,2110.405518 2060.864502,2043.419800 
	C2060.763672,2027.840942 2059.464355,2012.077148 2056.751465,1996.746216 
	C2050.181152,1959.616455 2027.961304,1932.687012 1997.031494,1912.996582 
	C1974.307617,1898.530029 1950.221802,1886.220825 1927.060059,1872.418091 
	C1907.342529,1860.667847 1887.325928,1849.198242 1868.761108,1835.778931 
	C1822.663574,1802.457764 1797.756836,1756.487305 1791.903442,1700.137451 
	C1790.597900,1687.568726 1789.822754,1674.887329 1789.780884,1662.254517 
	C1789.566162,1597.599609 1789.319580,1532.940918 1789.784180,1468.288696 
	C1790.111328,1422.772827 1804.905640,1382.708252 1838.008423,1350.418579 
	C1858.025513,1330.893311 1882.087891,1318.115845 1908.778809,1310.791870 
	C1951.405151,1299.095093 1994.439453,1298.702515 2037.174683,1310.199219 
	C2093.625977,1325.385620 2130.962646,1361.348267 2149.766113,1416.560669 
	C2158.218506,1441.380127 2161.804443,1467.101318 2161.931641,1493.217163 
	C2162.208740,1550.205933 2162.081055,1607.196655 2162.099609,1664.186646 
	C2162.100098,1665.794922 2161.888672,1667.403198 2161.733398,1669.622314 
	C2128.822754,1669.622314 2096.316162,1669.622314 2062.320312,1669.622314 
	C2062.320312,1666.182739 2062.320312,1662.660278 2062.320068,1659.137817 
	C2062.319580,1607.146606 2062.306396,1555.155518 2062.325684,1503.164307 
	C2062.331787,1486.453125 2061.282227,1469.894287 2056.518799,1453.728516 
	C2045.819702,1417.419067 2019.617554,1397.131470 1981.717285,1395.969849 
	C1970.018188,1395.611206 1958.413452,1395.975220 1947.092285,1399.515625 
	C1916.783325,1408.993774 1900.528442,1430.179443 1896.003052,1460.976685 
	C1895.135620,1466.880371 1895.088623,1472.940796 1895.082275,1478.929199 
	C1895.019897,1538.252441 1894.836548,1597.577026 1895.207642,1656.897949 
	C1895.290527,1670.152344 1896.261719,1683.620239 1898.825439,1696.594360 
	C1904.065308,1723.112305 1918.571289,1744.338501 1939.684082,1761.061035 
	C1959.894409,1777.068726 1982.289307,1789.595459 2005.123047,1801.309082 
	C2035.731201,1817.010986 2065.434326,1834.025024 2091.539307,1856.731323 
	C2128.654541,1889.014282 2151.886963,1929.334351 2159.702393,1977.824585 
	C2163.028076,1998.457886 2164.729248,2019.550781 2164.922119,2040.455444 
	C2165.556152,2109.104492 2165.202148,2177.763184 2165.136230,2246.418213 
	C2165.114014,2269.484375 2163.016113,2292.292236 2156.291504,2314.530273 
	C2139.888916,2368.776367 2105.133545,2405.969727 2051.606934,2424.169434 
	C1998.772095,2442.134033 1945.239502,2441.177246 1892.711670,2422.786133 
	C1837.133301,2403.327393 1803.809204,2362.714844 1788.077759,2306.781250 
	C1781.349609,2282.859619 1779.085693,2258.361084 1779.052368,2233.623535 
	C1778.971802,2173.633789 1779.006714,2113.644043 1779.026611,2053.654297 
	C1779.027466,2051.046631 1779.340454,2048.438965 1779.550537,2045.170898 
	C1813.804932,2045.170898 1847.623779,2045.170898 1882.677979,2045.170898 
	C1882.818237,2048.891113 1883.089111,2052.759033 1883.091064,2056.627197 
	C1883.119995,2114.617432 1882.855469,2172.609375 1883.302979,2230.596191 
	C1883.410156,2244.492676 1884.419556,2258.697998 1887.488770,2272.198730 
	C1898.337280,2319.917969 1930.945435,2344.330811 1979.957397,2342.755371 
	C1998.007446,2342.175293 2014.875732,2337.882812 2029.996948,2326.118408 
z"/>
<path fill="#020101" opacity="1.000000" stroke="none" 
	d="
M964.000000,1808.089844 
	C988.583069,1808.089844 1012.166138,1808.089844 1036.250244,1808.089844 
	C1036.250244,1839.590454 1036.250244,1870.126465 1036.250244,1901.684326 
	C975.642700,1901.684326 915.498291,1901.684326 854.738892,1901.684326 
	C854.738892,2043.501953 854.738892,2184.299072 854.738892,2326.146240 
	C925.441650,2326.146240 995.920227,2326.146240 1066.087402,2326.146240 
	C1068.447266,2334.281982 1069.197021,2399.287354 1067.445068,2418.528076 
	C1060.302979,2420.535156 770.011719,2421.438965 750.057312,2419.516357 
	C748.127136,2412.626221 747.448975,1331.778931 749.469910,1317.539551 
	C854.140442,1317.539551 958.915527,1317.539551 1064.163940,1317.539551 
	C1064.163940,1348.294678 1064.163940,1378.545776 1064.163940,1409.871338 
	C994.624207,1409.871338 925.148743,1409.871338 855.973511,1409.871338 
	C853.596741,1418.540527 852.607422,1780.060303 854.597412,1806.349243 
	C854.824585,1806.593140 855.037292,1806.852783 855.282898,1807.076538 
	C855.519165,1807.291748 855.788635,1807.638550 856.044861,1807.639771 
	C891.696472,1807.807007 927.348206,1807.947876 964.000000,1808.089844 
z"/>
<path fill="#030101" opacity="1.000000" stroke="none" 
	d="
M1342.321289,2250.000000 
	C1342.321289,2306.932861 1342.321289,2362.865967 1342.321289,2419.458008 
	C1307.765747,2419.458008 1273.937012,2419.458008 1239.097900,2419.458008 
	C1239.097900,2084.706543 1239.097900,1749.938965 1239.097900,1413.777100 
	C1191.698364,1413.332031 1145.262573,1413.832642 1098.206421,1413.489868 
	C1098.206421,1381.152588 1098.206421,1349.662354 1098.206421,1317.488037 
	C1226.817139,1317.488037 1355.286499,1317.488037 1483.716309,1317.488037 
	C1485.835327,1324.465454 1486.578369,1395.547119 1484.576050,1413.400391 
	C1469.301147,1413.466675 1453.807617,1413.560669 1438.314087,1413.593384 
	C1422.317627,1413.626953 1406.321167,1413.600952 1390.324707,1413.600952 
	C1374.725586,1413.600952 1359.126587,1413.600952 1342.321289,1413.600952 
	C1342.321289,1692.681274 1342.321289,1970.840576 1342.321289,2250.000000 
z"/>
<path fill="#000001" opacity="1.000000" stroke="none" 
	d="
M412.000763,1316.823486 
	C432.284363,1316.823608 451.568024,1316.823608 469.729645,1316.823608 
	C471.106171,1317.803955 471.430969,1317.946899 471.619354,1318.193848 
	C471.813293,1318.448120 471.882812,1318.800781 471.990936,1319.115845 
	C472.098175,1319.428345 472.214783,1319.742432 472.273499,1320.065430 
	C472.332733,1320.391235 472.328552,1320.728882 472.347076,1321.061523 
	C472.365570,1321.394287 472.385193,1321.727051 472.391144,1322.060059 
	C472.403107,1322.726440 472.408356,1323.393188 472.412262,1324.059692 
	C472.416168,1324.726196 472.415955,1325.392822 472.415985,1326.059326 
	C472.419586,1657.008545 472.423035,1987.957764 472.426849,2318.906982 
	C472.426849,2319.240234 472.427582,2319.573975 472.436554,2319.906982 
	C472.445557,2320.239990 472.463837,2320.572754 472.480957,2320.905518 
	C472.498108,2321.238037 472.492828,2321.574707 472.545227,2321.901855 
	C472.597626,2322.229248 472.690552,2322.553955 472.800232,2322.867432 
	C472.905670,2323.169189 473.055298,2323.455566 473.847992,2325.239502 
	C506.030792,2325.305664 538.900940,2325.262939 571.770081,2325.270264 
	C604.690063,2325.277588 637.610046,2325.271729 671.117065,2325.271729 
	C671.117065,2357.132080 671.117065,2387.950439 671.117065,2419.440674 
	C570.068665,2419.440674 469.297699,2419.440674 367.852295,2419.440674 
	C367.852295,2052.140137 367.852295,1685.070312 367.852295,1316.823486 
	C382.479584,1316.823486 396.740234,1316.823486 412.000763,1316.823486 
z"/>
<path fill="#020101" opacity="1.000000" stroke="none" 
	d="
M1681.340820,1417.172363 
	C1678.756714,1438.590576 1675.674438,1459.022339 1668.004761,1478.340210 
	C1664.463501,1487.259766 1660.331909,1496.102661 1655.261230,1504.227295 
	C1640.869873,1527.287231 1619.230347,1539.195312 1592.600952,1541.942871 
	C1583.090698,1542.924072 1573.393921,1542.099976 1563.046387,1542.099976 
	C1563.046387,1524.629395 1563.046387,1507.518799 1563.046387,1489.324585 
	C1567.465088,1488.964722 1572.026978,1488.600098 1576.587524,1488.220459 
	C1596.259888,1486.582886 1606.353027,1477.948730 1610.183594,1458.794312 
	C1611.481201,1452.305908 1611.814087,1445.611572 1612.371094,1438.993164 
	C1612.643188,1435.759766 1612.418091,1432.484497 1612.418091,1428.704468 
	C1608.220581,1428.217163 1604.640747,1427.968018 1601.121338,1427.365112 
	C1581.802734,1424.056641 1568.465942,1413.309814 1561.277710,1395.030029 
	C1555.042480,1379.174072 1554.182373,1362.542725 1555.114014,1345.871704 
	C1555.629883,1336.642212 1557.171021,1327.334106 1559.451416,1318.366821 
	C1564.570557,1298.239380 1578.117432,1286.485840 1598.360352,1282.990601 
	C1613.534668,1280.370361 1628.870850,1280.181396 1643.974121,1283.975952 
	C1659.563477,1287.892822 1670.454712,1297.283081 1676.454590,1312.327271 
	C1681.725464,1325.543701 1683.566528,1339.454712 1683.516846,1353.421631 
	C1683.442383,1374.374268 1682.208618,1395.322876 1681.340820,1417.172363 
z"/>
<path fill="#FFFDFB" opacity="1.000000" stroke="none" 
	d="
M1882.123047,370.883789 
	C1834.799561,370.929169 1795.337280,336.281769 1787.213989,292.318024 
	C1774.495850,223.487488 1829.798950,175.981186 1882.188965,175.735153 
	C1922.376465,175.546448 1970.159912,203.732422 1979.072021,257.192657 
	C1987.589966,308.288788 1957.291260,350.158569 1916.272827,365.323395 
	C1905.598145,369.269897 1894.482666,371.339294 1882.123047,370.883789 
M1793.529785,275.027405 
	C1807.645508,278.730865 1821.990845,281.740173 1835.817871,286.315887 
	C1852.564453,291.857758 1863.909058,303.869171 1869.978394,320.355255 
	C1873.296265,329.367126 1875.610718,338.760620 1878.135742,348.047791 
	C1879.757568,354.012482 1880.938965,360.096893 1882.317749,366.127625 
	C1884.304443,362.120728 1884.987061,358.199799 1886.031128,354.377625 
	C1889.091797,343.174438 1891.730591,331.811646 1895.574951,320.877197 
	C1901.536377,303.921936 1913.297363,291.929108 1930.375610,286.186462 
	C1942.612427,282.071686 1955.314453,279.341034 1967.804565,275.976593 
	C1970.445557,275.265167 1973.067383,274.483093 1976.023682,273.640778 
	C1960.822266,269.503845 1946.236694,266.162567 1932.077637,261.520782 
	C1914.722290,255.831146 1902.255859,244.210312 1895.956421,226.823700 
	C1892.795532,218.099762 1890.348511,209.101791 1887.903320,200.139145 
	C1886.156128,193.735275 1884.949219,187.184021 1883.501343,180.698517 
	C1881.526611,184.718140 1880.902466,188.655609 1879.845581,192.473358 
	C1876.658691,203.986282 1873.882568,215.659027 1869.878784,226.888901 
	C1863.818481,243.887238 1851.478027,255.128540 1834.623413,261.213287 
	C1827.144653,263.913208 1819.422852,265.993073 1811.719971,268.003876 
	C1804.678467,269.841980 1797.513672,271.207520 1789.674927,272.942413 
	C1791.119263,273.848480 1791.672485,274.195587 1793.529785,275.027405 
z"/>
<path fill="#FFFDFB" opacity="1.000000" stroke="none" 
	d="
M1802.339233,3366.350586 
	C1838.310791,3315.197998 1909.030151,3310.371826 1951.226685,3351.707764 
	C1980.346313,3380.232910 1988.597656,3426.163574 1971.702271,3462.387939 
	C1954.252075,3499.801270 1915.359741,3522.282959 1874.326050,3518.732178 
	C1818.093506,3513.866211 1784.108154,3464.237549 1785.517578,3421.465820 
	C1786.179321,3401.383789 1791.115845,3383.512207 1802.339233,3366.350586 
M1968.120972,3423.942627 
	C1970.568359,3423.205322 1973.015747,3422.468018 1977.147583,3421.222900 
	C1966.002686,3418.685791 1956.974365,3416.389160 1947.846802,3414.596924 
	C1915.413574,3408.227783 1896.365356,3388.681396 1889.817505,3356.473389 
	C1887.912476,3347.102783 1885.545654,3337.826172 1883.206665,3327.711426 
	C1879.516479,3341.784912 1876.340698,3355.030029 1872.552246,3368.097168 
	C1865.740234,3391.594482 1849.831177,3405.899658 1826.453979,3412.104004 
	C1814.502808,3415.276123 1802.448608,3418.060059 1788.425903,3421.515625 
	C1793.199463,3422.680908 1796.056641,3423.317139 1798.880371,3424.078369 
	C1811.068970,3427.363770 1823.443359,3430.105713 1835.383301,3434.133057 
	C1852.114990,3439.776855 1863.661377,3451.503174 1869.875610,3467.977783 
	C1873.153320,3476.667480 1875.499756,3485.727295 1877.929443,3494.711182 
	C1879.650635,3501.075439 1880.806641,3507.592285 1882.214966,3514.040771 
	C1883.787476,3512.204590 1884.170044,3510.406982 1884.629395,3508.629395 
	C1887.790771,3496.393066 1890.367188,3483.965088 1894.279663,3471.973145 
	C1900.422607,3453.145264 1912.815186,3439.694092 1931.982544,3433.569336 
	C1943.363770,3429.932617 1955.049072,3427.247559 1968.120972,3423.942627 
z"/>
<path fill="#FFFDFB" opacity="1.000000" stroke="none" 
	d="
M3409.480713,1843.942993 
	C3410.020752,1836.763916 3409.604736,1829.356812 3411.254639,1822.442627 
	C3422.448975,1775.533569 3463.079834,1744.269043 3510.944824,1745.226929 
	C3558.625000,1746.181396 3597.862549,1779.328979 3607.091064,1826.783203 
	C3608.217041,1832.573608 3607.832031,1838.657959 3607.405762,1845.250000 
	C3606.664551,1845.893921 3605.670898,1845.877686 3605.247559,1845.256958 
	C3590.338867,1841.059448 3575.675049,1838.072021 3561.416016,1833.750000 
	C3545.252930,1828.851318 3532.232422,1819.273315 3524.880127,1803.521606 
	C3521.803711,1796.930420 3519.175537,1790.037476 3517.220703,1783.036865 
	C3514.192139,1772.191895 3511.914795,1761.137085 3508.815674,1748.045898 
	C3507.571045,1753.401489 3506.880859,1756.854858 3505.960205,1760.245728 
	C3502.658936,1772.408447 3499.930664,1784.778076 3495.773438,1796.644897 
	C3489.863037,1813.518188 3478.035400,1825.256348 3461.292236,1831.815430 
	C3445.456299,1838.019043 3429.091553,1842.141724 3411.732910,1844.039673 
	C3410.682129,1843.984863 3410.081543,1843.960815 3409.480713,1843.942993 
z"/>
<path fill="#FFFDFB" opacity="1.000000" stroke="none" 
	d="
M84.898811,1843.980957 
	C83.416031,1830.986084 87.062675,1818.883057 91.824799,1807.127930 
	C107.208710,1769.152832 147.314392,1739.215210 199.007004,1746.154297 
	C240.406586,1751.711792 276.120392,1783.693115 283.528351,1830.287109 
	C284.253418,1834.847656 283.923645,1839.575806 283.342712,1845.069946 
	C282.256683,1845.886841 281.911469,1845.859985 281.114288,1845.241943 
	C266.149597,1841.063965 251.458725,1838.067017 237.166260,1833.750854 
	C216.254547,1827.435669 202.547440,1813.277588 195.867706,1792.432007 
	C194.447205,1787.999023 192.971344,1783.568848 191.865494,1779.052979 
	C189.535522,1769.538574 187.433685,1759.968384 184.675049,1747.971924 
	C183.368011,1753.484863 182.739182,1756.689209 181.843918,1759.817383 
	C178.005966,1773.227905 174.825363,1786.887695 170.006454,1799.940186 
	C164.572327,1814.658936 153.590836,1824.744141 139.098770,1830.878174 
	C122.750580,1837.797852 105.681587,1841.919556 87.561562,1844.016602 
	C86.319038,1843.994507 85.608925,1843.987671 84.898811,1843.980957 
z"/>
<path fill="#FFFCFA" opacity="1.000000" stroke="none" 
	d="
M84.712563,1844.847412 
	C85.608925,1843.987671 86.319038,1843.994507 87.875717,1844.705078 
	C92.255829,1846.280029 95.797142,1847.120972 99.321495,1848.028076 
	C109.581421,1850.668945 119.909866,1853.078247 130.074997,1856.045898 
	C152.570038,1862.612793 167.112885,1877.461304 173.749207,1899.799683 
	C176.954285,1910.588013 179.180740,1921.663940 182.075729,1932.549683 
	C182.892075,1935.619263 184.505402,1938.477173 185.798248,1941.901123 
	C185.893951,1942.996582 185.926086,1943.623901 185.939743,1944.252075 
	C179.044388,1944.093872 171.994370,1944.815918 165.278595,1943.635742 
	C119.029602,1935.508545 83.892883,1892.671021 84.712563,1844.847412 
z"/>
<path fill="#FFFCFA" opacity="1.000000" stroke="none" 
	d="
M3409.170166,1844.765991 
	C3410.081543,1843.960815 3410.682129,1843.984863 3412.069336,1844.706543 
	C3416.395020,1846.270020 3419.941650,1847.111938 3423.471191,1848.019775 
	C3433.743164,1850.662109 3444.087158,1853.062012 3454.260254,1856.043091 
	C3476.750488,1862.634033 3491.381104,1877.397583 3497.970703,1899.830566 
	C3501.052979,1910.323975 3503.284668,1921.064697 3506.104736,1931.639160 
	C3507.012451,1935.042603 3508.570312,1938.272583 3509.864502,1942.005371 
	C3509.931885,1942.994385 3509.945557,1943.560547 3509.938477,1944.127197 
	C3502.735840,1943.935425 3495.327148,1944.776245 3488.364258,1943.384888 
	C3441.867432,1934.093994 3408.742920,1893.069580 3409.170166,1844.765991 
z"/>
<path fill="#FFFDFC" opacity="1.000000" stroke="none" 
	d="
M186.695526,1944.658203 
	C185.926086,1943.623901 185.893951,1942.996582 185.746643,1941.102661 
	C188.864639,1926.342041 191.548264,1912.694702 195.413071,1899.390381 
	C201.912979,1877.015625 216.734528,1862.330200 239.214294,1856.065796 
	C253.196274,1852.169434 267.440002,1849.212036 281.566223,1845.833252 
	C281.911469,1845.859985 282.256683,1845.886841 283.119873,1845.952637 
	C283.116974,1853.500854 283.571259,1861.232788 281.915710,1868.483032 
	C271.842621,1912.596802 232.121826,1944.562134 186.695526,1944.658203 
z"/>
<path fill="#FFFDFC" opacity="1.000000" stroke="none" 
	d="
M3510.666992,1944.590576 
	C3509.945557,1943.560547 3509.931885,1942.994385 3509.828369,1941.204346 
	C3513.108887,1926.174927 3515.924072,1912.212402 3519.931396,1898.600952 
	C3526.296875,1876.979736 3540.771973,1862.691895 3562.369629,1856.409424 
	C3576.618896,1852.264404 3591.224609,1849.345459 3605.670898,1845.877686 
	C3605.670898,1845.877686 3606.664551,1845.893921 3607.161377,1845.897217 
	C3610.064697,1856.378052 3607.222900,1866.294800 3604.123535,1876.080811 
	C3591.320557,1916.507935 3553.222168,1944.769531 3510.666992,1944.590576 
z"/>
<path fill="#FD7600" opacity="1.000000" stroke="none" 
	d="
M3243.058350,1684.000854 
	C3243.058105,1853.963867 3243.069580,2022.926758 3243.045898,2191.889648 
	C3243.042480,2216.909424 3242.347656,2241.904541 3235.991699,2266.298340 
	C3233.901123,2274.321777 3231.363037,2282.316650 3228.118896,2289.936768 
	C3212.856445,2325.784180 3185.595215,2343.164062 3146.669434,2342.739502 
	C3109.653809,2342.335693 3084.294434,2324.867432 3069.555176,2291.195557 
	C3061.709717,2273.272217 3057.873047,2254.382568 3056.234131,2235.081787 
	C3054.995850,2220.493164 3054.436279,2205.804688 3054.428467,2191.160156 
	C3054.309814,1971.208374 3054.289062,1751.256592 3054.385742,1531.304810 
	C3054.395996,1507.583496 3056.643066,1483.988647 3064.102539,1461.317505 
	C3067.201660,1451.899048 3071.163330,1442.550415 3076.172852,1434.015625 
	C3089.802979,1410.794922 3110.793945,1398.214478 3137.428711,1396.403320 
	C3149.244385,1395.599854 3161.524414,1396.409302 3173.125000,1398.780396 
	C3194.815918,1403.214111 3210.844727,1416.403931 3222.021484,1435.416016 
	C3232.330811,1452.953125 3237.691650,1472.213013 3239.811768,1492.201294 
	C3241.670898,1509.729004 3242.757080,1527.408813 3242.917236,1545.032959 
	C3243.335205,1591.018799 3243.058350,1637.011108 3243.058350,1684.000854 
z"/>
<path fill="#FF7A05" opacity="1.000000" stroke="none" 
	d="
M1792.877808,274.785065 
	C1791.672485,274.195587 1791.119263,273.848480 1789.674927,272.942413 
	C1797.513672,271.207520 1804.678467,269.841980 1811.719971,268.003876 
	C1819.422852,265.993073 1827.144653,263.913208 1834.623413,261.213287 
	C1851.478027,255.128540 1863.818481,243.887238 1869.878784,226.888901 
	C1873.882568,215.659027 1876.658691,203.986282 1879.845581,192.473358 
	C1880.902466,188.655609 1881.526611,184.718140 1883.501343,180.698517 
	C1884.949219,187.184021 1886.156128,193.735275 1887.903320,200.139145 
	C1890.348511,209.101791 1892.795532,218.099762 1895.956421,226.823700 
	C1902.255859,244.210312 1914.722290,255.831146 1932.077637,261.520782 
	C1946.236694,266.162567 1960.822266,269.503845 1976.023682,273.640778 
	C1973.067383,274.483093 1970.445557,275.265167 1967.804565,275.976593 
	C1955.314453,279.341034 1942.612427,282.071686 1930.375610,286.186462 
	C1913.297363,291.929108 1901.536377,303.921936 1895.574951,320.877197 
	C1891.730591,331.811646 1889.091797,343.174438 1886.031128,354.377625 
	C1884.987061,358.199799 1884.304443,362.120728 1882.317749,366.127625 
	C1880.938965,360.096893 1879.757568,354.012482 1878.135742,348.047791 
	C1875.610718,338.760620 1873.296265,329.367126 1869.978394,320.355255 
	C1863.909058,303.869171 1852.564453,291.857758 1835.817871,286.315887 
	C1821.990845,281.740173 1807.645508,278.730865 1792.877808,274.785065 
z"/>
<path fill="#FF7A05" opacity="1.000000" stroke="none" 
	d="
M1967.359375,3424.038574 
	C1955.049072,3427.247559 1943.363770,3429.932617 1931.982544,3433.569336 
	C1912.815186,3439.694092 1900.422607,3453.145264 1894.279663,3471.973145 
	C1890.367188,3483.965088 1887.790771,3496.393066 1884.629395,3508.629395 
	C1884.170044,3510.406982 1883.787476,3512.204590 1882.214966,3514.040771 
	C1880.806641,3507.592285 1879.650635,3501.075439 1877.929443,3494.711182 
	C1875.499756,3485.727295 1873.153320,3476.667480 1869.875610,3467.977783 
	C1863.661377,3451.503174 1852.114990,3439.776855 1835.383301,3434.133057 
	C1823.443359,3430.105713 1811.068970,3427.363770 1798.880371,3424.078369 
	C1796.056641,3423.317139 1793.199463,3422.680908 1788.425903,3421.515625 
	C1802.448608,3418.060059 1814.502808,3415.276123 1826.453979,3412.104004 
	C1849.831177,3405.899658 1865.740234,3391.594482 1872.552246,3368.097168 
	C1876.340698,3355.030029 1879.516479,3341.784912 1883.206665,3327.711426 
	C1885.545654,3337.826172 1887.912476,3347.102783 1889.817505,3356.473389 
	C1896.365356,3388.681396 1915.413574,3408.227783 1947.846802,3414.596924 
	C1956.974365,3416.389160 1966.002686,3418.685791 1977.147583,3421.222900 
	C1973.015747,3422.468018 1970.568359,3423.205322 1967.359375,3424.038574 
z"/>
<path fill="#FF7A05" opacity="1.000000" stroke="none" 
	d="
M3605.247559,1845.256836 
	C3591.224609,1849.345459 3576.618896,1852.264404 3562.369629,1856.409424 
	C3540.771973,1862.691895 3526.296875,1876.979736 3519.931396,1898.600952 
	C3515.924072,1912.212402 3513.108887,1926.174927 3509.794922,1940.781006 
	C3508.570312,1938.272583 3507.012451,1935.042603 3506.104736,1931.639160 
	C3503.284668,1921.064697 3501.052979,1910.323975 3497.970703,1899.830566 
	C3491.381104,1877.397583 3476.750488,1862.634033 3454.260254,1856.043091 
	C3444.087158,1853.062012 3433.743164,1850.662109 3423.471191,1848.019775 
	C3419.941650,1847.111938 3416.395020,1846.270020 3412.519531,1844.731201 
	C3429.091553,1842.141724 3445.456299,1838.019043 3461.292236,1831.815430 
	C3478.035400,1825.256348 3489.863037,1813.518188 3495.773438,1796.644897 
	C3499.930664,1784.778076 3502.658936,1772.408447 3505.960205,1760.245728 
	C3506.880859,1756.854858 3507.571045,1753.401489 3508.815674,1748.045898 
	C3511.914795,1761.137085 3514.192139,1772.191895 3517.220703,1783.036865 
	C3519.175537,1790.037476 3521.803711,1796.930420 3524.880127,1803.521606 
	C3532.232422,1819.273315 3545.252930,1828.851318 3561.416016,1833.750000 
	C3575.675049,1838.072021 3590.338867,1841.059448 3605.247559,1845.256836 
z"/>
<path fill="#FF7A05" opacity="1.000000" stroke="none" 
	d="
M281.114258,1845.241943 
	C267.440002,1849.212036 253.196274,1852.169434 239.214294,1856.065796 
	C216.734528,1862.330200 201.912979,1877.015625 195.413071,1899.390381 
	C191.548264,1912.694702 188.864639,1926.342041 185.701538,1940.633667 
	C184.505402,1938.477173 182.892075,1935.619263 182.075729,1932.549683 
	C179.180740,1921.663940 176.954285,1910.588013 173.749207,1899.799683 
	C167.112885,1877.461304 152.570038,1862.612793 130.074997,1856.045898 
	C119.909866,1853.078247 109.581421,1850.668945 99.321495,1848.028076 
	C95.797142,1847.120972 92.255829,1846.280029 88.408127,1844.720215 
	C105.681587,1841.919556 122.750580,1837.797852 139.098770,1830.878174 
	C153.590836,1824.744141 164.572327,1814.658936 170.006454,1799.940186 
	C174.825363,1786.887695 178.005966,1773.227905 181.843918,1759.817383 
	C182.739182,1756.689209 183.368011,1753.484863 184.675049,1747.971924 
	C187.433685,1759.968384 189.535522,1769.538574 191.865494,1779.052979 
	C192.971344,1783.568848 194.447205,1787.999023 195.867706,1792.432007 
	C202.547440,1813.277588 216.254547,1827.435669 237.166260,1833.750854 
	C251.458725,1838.067017 266.149597,1841.063965 281.114258,1845.241943 
z"/>
</svg>